<?xml version="1.0" encoding="UTF-8" standalone="no"?>
<!DOCTYPE svg PUBLIC "-//W3C//DTD SVG 1.1//EN" "http://www.w3.org/Graphics/SVG/1.1/DTD/svg11.dtd">
<svg width="100%" height="100%" viewBox="0 0 227 227" version="1.1" xmlns="http://www.w3.org/2000/svg" xmlns:xlink="http://www.w3.org/1999/xlink" xml:space="preserve" xmlns:serif="http://www.serif.com/" style="fill-rule:evenodd;clip-rule:evenodd;stroke-linejoin:round;stroke-miterlimit:2;">
    <g transform="matrix(1,0,0,1,-1163.93,-1330.66)">
        <g transform="matrix(0.403279,0,0,0.403279,702.002,801.491)">
            <path d="M1499.12,1343.89C1499.12,1343.89 1501.45,1369.44 1501.45,1369.44C1511.62,1372.86 1521.56,1376.97 1531.17,1381.75L1550.89,1365.33C1561.68,1356.34 1577.18,1355.74 1588.64,1363.87C1614.49,1382.19 1637.06,1404.76 1655.38,1430.61C1663.51,1442.07 1662.9,1457.56 1653.92,1468.36C1653.92,1468.36 1637.5,1488.08 1637.5,1488.08C1642.28,1497.69 1646.39,1507.62 1649.81,1517.8L1675.36,1520.13C1689.35,1521.41 1700.73,1531.94 1703.09,1545.79C1708.42,1577.03 1708.42,1608.94 1703.09,1640.18C1700.73,1654.03 1689.35,1664.56 1675.36,1665.84C1675.36,1665.84 1649.81,1668.18 1649.81,1668.17C1646.39,1678.35 1642.28,1688.28 1637.5,1697.89L1653.92,1717.61C1662.9,1728.41 1663.51,1743.9 1655.38,1755.36C1637.06,1781.22 1614.49,1803.79 1588.64,1822.11C1577.18,1830.23 1561.68,1829.63 1550.89,1820.64C1550.89,1820.64 1531.17,1804.23 1531.17,1804.23C1521.56,1809 1511.62,1813.11 1501.45,1816.54L1499.12,1842.09C1497.84,1856.08 1487.31,1867.46 1473.46,1869.82C1442.22,1875.14 1410.31,1875.14 1379.07,1869.82C1365.22,1867.46 1354.69,1856.08 1353.41,1842.09C1353.41,1842.09 1351.07,1816.54 1351.07,1816.54C1340.9,1813.11 1330.97,1809 1321.36,1804.23L1301.64,1820.64C1290.84,1829.63 1275.35,1830.23 1263.88,1822.11C1238.03,1803.79 1215.46,1781.22 1197.14,1755.36C1189.02,1743.9 1189.62,1728.41 1198.61,1717.61C1198.61,1717.61 1215.02,1697.89 1215.02,1697.89C1210.25,1688.28 1206.13,1678.35 1202.71,1668.18L1177.16,1665.84C1163.17,1664.56 1151.79,1654.03 1149.43,1640.18C1144.11,1608.94 1144.11,1577.03 1149.43,1545.79C1151.79,1531.94 1163.17,1521.41 1177.16,1520.13C1177.16,1520.13 1202.71,1517.8 1202.71,1517.8C1206.13,1507.62 1210.25,1497.69 1215.02,1488.08L1198.61,1468.36C1189.62,1457.56 1189.02,1442.07 1197.14,1430.61C1215.46,1404.76 1238.03,1382.19 1263.88,1363.87C1275.35,1355.74 1290.84,1356.34 1301.64,1365.33C1301.64,1365.33 1321.36,1381.75 1321.36,1381.75C1330.97,1376.97 1340.9,1372.86 1351.07,1369.44L1353.41,1343.89C1354.69,1329.9 1365.22,1318.52 1379.07,1316.15C1410.31,1310.83 1442.22,1310.83 1473.46,1316.15C1487.31,1318.52 1497.84,1329.9 1499.12,1343.89ZM1468.25,1346.71C1440.46,1341.97 1412.07,1341.97 1384.28,1346.71L1380,1393.42C1358.01,1398.52 1337.01,1407.21 1317.85,1419.16L1281.81,1389.15C1258.81,1405.45 1238.73,1425.53 1222.43,1448.53L1252.44,1484.58C1240.49,1503.74 1231.79,1524.74 1226.69,1546.73L1179.99,1551C1175.25,1578.79 1175.25,1607.18 1179.99,1634.97L1226.69,1639.24C1231.79,1661.24 1240.49,1682.24 1252.44,1701.39L1222.43,1737.44C1238.73,1760.44 1258.81,1780.52 1281.81,1796.82L1317.85,1766.81C1337.01,1778.76 1358.01,1787.46 1380,1792.56L1384.28,1839.26C1412.07,1844 1440.46,1844 1468.25,1839.26L1472.52,1792.56C1494.51,1787.46 1515.51,1778.76 1534.67,1766.81L1570.72,1796.82C1593.72,1780.52 1613.79,1760.44 1630.09,1737.44L1600.09,1701.39C1612.04,1682.24 1620.73,1661.24 1625.83,1639.24L1672.54,1634.97C1677.28,1607.18 1677.28,1578.79 1672.54,1551L1625.83,1546.73C1620.73,1524.74 1612.04,1503.74 1600.09,1484.58L1630.09,1448.53C1613.79,1425.53 1593.72,1405.45 1570.72,1389.15L1534.67,1419.16C1515.51,1407.21 1494.51,1398.52 1472.52,1393.42L1468.25,1346.71ZM1426.26,1470.57C1493.83,1470.57 1548.68,1525.42 1548.68,1592.99C1548.68,1660.55 1493.83,1715.4 1426.26,1715.4C1358.7,1715.4 1303.85,1660.55 1303.85,1592.99C1303.85,1525.42 1358.7,1470.57 1426.26,1470.57ZM1426.26,1501.57C1375.81,1501.57 1334.84,1542.53 1334.84,1592.99C1334.84,1643.44 1375.81,1684.41 1426.26,1684.41C1476.72,1684.41 1517.68,1643.44 1517.68,1592.99C1517.68,1542.53 1476.72,1501.57 1426.26,1501.57Z" style="fill:rgb(191,155,48);"/>
        </g>
    </g>
</svg>
