<?xml version="1.0" encoding="UTF-8" standalone="no"?><!DOCTYPE svg PUBLIC "-//W3C//DTD SVG 1.1//EN" "http://www.w3.org/Graphics/SVG/1.1/DTD/svg11.dtd"><svg width="100%" height="100%" viewBox="0 0 670 244" version="1.1" xmlns="http://www.w3.org/2000/svg" xmlns:xlink="http://www.w3.org/1999/xlink" xml:space="preserve" xmlns:serif="http://www.serif.com/" style="fill-rule:evenodd;clip-rule:evenodd;stroke-linejoin:round;stroke-miterlimit:2;"><path d="M230.614,193.279l-39.332,37.335l-178.782,0l0,-218.114l218.114,0l0,180.779Z" style="fill:#eac53d;"/><path d="M239.22,202.345l-39.332,37.335c-2.323,2.205 -5.403,3.434 -8.606,3.434l-178.782,0c-6.904,0 -12.5,-5.596 -12.5,-12.5l-0,-218.114c0,-6.904 5.596,-12.5 12.5,-12.5l218.114,0c6.904,-0 12.5,5.596 12.5,12.5l0,180.779c0,3.428 -1.408,6.706 -3.894,9.066Zm-8.606,-9.066l0,-180.779l-218.114,0l0,218.114l178.782,0l39.332,-37.335Z" style="fill:#eac53d;"/><path d="M50.509,195.114l-0,-147.114l44.455,0l26.694,100.351l26.392,-100.351l44.556,0l-0,147.114l-27.597,0l0,-115.804l-29.202,115.804l-28.6,0l-29.102,-115.804l0,115.804l-27.596,0Z" style="fill:#fff;fill-rule:nonzero;"/><path d="M266.973,192.606l-0,-147.115l109.081,0l0,24.887l-79.377,0l-0,32.614l73.858,0l-0,24.787l-73.858,-0l-0,40.04l82.187,-0l-0,24.787l-111.891,-0Z" style="fill:#eac53d;fill-rule:nonzero;"/><path d="M404.353,192.606l0,-147.115l28.901,0l60.211,98.244l-0,-98.244l27.596,0l0,147.115l-29.804,-0l-59.307,-95.936l-0,95.936l-27.597,-0Z" style="fill:#eac53d;fill-rule:nonzero;"/><path d="M552.27,45.491l29.704,0l0,79.679c0,12.644 0.368,20.839 1.104,24.586c1.271,6.021 4.298,10.854 9.082,14.5c4.783,3.647 11.323,5.47 19.618,5.47c8.43,-0 14.785,-1.723 19.067,-5.168c4.282,-3.446 6.857,-7.677 7.727,-12.695c0.87,-5.017 1.304,-13.346 1.304,-24.987l0,-81.385l29.704,0l0,77.27c0,17.662 -0.803,30.139 -2.408,37.431c-1.606,7.292 -4.566,13.447 -8.881,18.465c-4.315,5.017 -10.085,9.015 -17.311,11.992c-7.225,2.977 -16.658,4.465 -28.299,4.465c-14.049,0 -24.703,-1.622 -31.961,-4.867c-7.259,-3.244 -12.996,-7.459 -17.211,-12.644c-4.214,-5.185 -6.991,-10.62 -8.329,-16.307c-1.94,-8.429 -2.91,-20.873 -2.91,-37.33l0,-78.475Z" style="fill:#eac53d;fill-rule:nonzero;"/></svg>