<?xml version="1.0" encoding="UTF-8" standalone="no"?>
<!DOCTYPE svg PUBLIC "-//W3C//DTD SVG 1.1//EN" "http://www.w3.org/Graphics/SVG/1.1/DTD/svg11.dtd">
<svg width="100%" height="100%" viewBox="0 0 1247 328" version="1.1" xmlns="http://www.w3.org/2000/svg" xmlns:xlink="http://www.w3.org/1999/xlink" xml:space="preserve" xmlns:serif="http://www.serif.com/" style="fill-rule:evenodd;clip-rule:evenodd;stroke-linecap:round;stroke-linejoin:round;stroke-miterlimit:1.5;">
    <g transform="matrix(1,0,0,1,-465.385,-1859.05)">
        <g transform="matrix(0.533334,0,0,0.573766,-39.959,1218.48)">
            <rect x="1105" y="1127.31" width="549.833" height="549.833" style="fill:rgb(253,233,104);stroke:rgb(253,233,104);stroke-width:22.57px;"/>
        </g>
        <g transform="matrix(0.677541,0,0,0.677541,36.7041,391.809)">
            <rect x="1031.28" y="2174.76" width="158.192" height="158.192" style="fill:rgb(240,211,93);stroke:rgb(240,211,93);stroke-width:18.45px;"/>
        </g>
        <g transform="matrix(0.677541,0,0,0.677541,36.7041,492.921)">
            <rect x="1031.28" y="2174.76" width="158.192" height="158.192" style="fill:rgb(234,197,61);stroke:rgb(234,197,61);stroke-width:18.45px;stroke-linecap:butt;"/>
        </g>
        <g transform="matrix(0.677541,0,0,0.677541,36.7041,600.103)">
            <rect x="1031.28" y="2174.76" width="158.192" height="158.192" style="fill:rgb(216,156,14);stroke:rgb(216,156,14);stroke-width:18.45px;stroke-linecap:butt;"/>
        </g>
        <g transform="matrix(0.677541,0,0,0.677541,-232.757,1057.26)">
            <path d="M1370.78,1531.26L1312.72,1586.37L1048.85,1586.37L1048.85,1264.44L1370.78,1264.44L1370.78,1531.26Z" style="fill:rgb(234,197,61);"/>
            <path d="M1383.48,1544.64L1325.42,1599.75C1322,1603 1317.45,1604.81 1312.72,1604.81L1048.85,1604.81C1038.66,1604.81 1030.4,1596.55 1030.4,1586.37L1030.4,1264.44C1030.4,1254.26 1038.66,1246 1048.85,1246L1370.78,1246C1380.96,1246 1389.22,1254.26 1389.22,1264.44L1389.22,1531.26C1389.22,1536.32 1387.15,1541.16 1383.48,1544.64ZM1370.78,1531.26L1370.78,1264.44L1048.85,1264.44L1048.85,1586.37L1312.72,1586.37L1370.78,1531.26Z" style="fill:rgb(234,197,61);"/>
        </g>
        <g transform="matrix(4.11037,0,0,4.11037,-2809.16,-1881.81)">
            <g transform="matrix(50,0,0,50,808.32,967.894)">
                <path d="M0.074,-0L0.074,-0.716L0.215,-0.716L0.508,-0.238L0.508,-0.716L0.642,-0.716L0.642,-0L0.497,-0L0.208,-0.467L0.208,-0L0.074,-0Z" style="fill:white;fill-rule:nonzero;"/>
            </g>
        </g>
        <g transform="matrix(0.784173,0,0,0.784173,-270.47,923.483)">
            <g transform="matrix(303.33,0,0,303.33,1469.77,1510.74)">
                <path d="M0.074,-0L0.074,-0.716L0.215,-0.716L0.508,-0.238L0.508,-0.716L0.642,-0.716L0.642,-0L0.497,-0L0.208,-0.467L0.208,-0L0.074,-0Z" style="fill:rgb(133,133,133);fill-rule:nonzero;"/>
            </g>
            <g transform="matrix(303.33,0,0,303.33,1688.83,1510.74)">
                <path d="M0.043,-0.354C0.043,-0.426 0.054,-0.488 0.076,-0.537C0.092,-0.574 0.115,-0.606 0.143,-0.635C0.171,-0.664 0.202,-0.686 0.235,-0.7C0.28,-0.719 0.331,-0.728 0.39,-0.728C0.495,-0.728 0.58,-0.695 0.643,-0.63C0.706,-0.564 0.738,-0.473 0.738,-0.357C0.738,-0.241 0.706,-0.151 0.644,-0.086C0.581,-0.02 0.497,0.012 0.392,0.012C0.285,0.012 0.201,-0.02 0.138,-0.085C0.075,-0.15 0.043,-0.24 0.043,-0.354ZM0.192,-0.358C0.192,-0.277 0.211,-0.216 0.249,-0.174C0.286,-0.132 0.333,-0.111 0.391,-0.111C0.449,-0.111 0.496,-0.132 0.533,-0.174C0.57,-0.215 0.588,-0.277 0.588,-0.36C0.588,-0.442 0.57,-0.504 0.534,-0.544C0.498,-0.584 0.451,-0.604 0.391,-0.604C0.332,-0.604 0.284,-0.584 0.247,-0.543C0.211,-0.502 0.192,-0.441 0.192,-0.358Z" style="fill:rgb(133,133,133);fill-rule:nonzero;"/>
            </g>
            <g transform="matrix(303.33,0,0,303.33,1924.77,1510.74)">
                <path d="M0.073,-0L0.073,-0.716L0.305,-0.716C0.393,-0.716 0.45,-0.712 0.477,-0.705C0.518,-0.694 0.552,-0.671 0.58,-0.635C0.607,-0.599 0.621,-0.553 0.621,-0.496C0.621,-0.452 0.613,-0.415 0.597,-0.385C0.581,-0.355 0.561,-0.331 0.536,-0.314C0.512,-0.297 0.487,-0.286 0.461,-0.28C0.427,-0.273 0.377,-0.27 0.312,-0.27L0.217,-0.27L0.217,-0L0.073,-0ZM0.217,-0.595L0.217,-0.392L0.296,-0.392C0.353,-0.392 0.391,-0.395 0.411,-0.403C0.43,-0.41 0.445,-0.422 0.456,-0.438C0.467,-0.454 0.472,-0.472 0.472,-0.494C0.472,-0.52 0.465,-0.541 0.449,-0.558C0.434,-0.575 0.415,-0.586 0.391,-0.59C0.374,-0.593 0.339,-0.595 0.287,-0.595L0.217,-0.595Z" style="fill:rgb(133,133,133);fill-rule:nonzero;"/>
            </g>
            <g transform="matrix(303.33,0,0,303.33,2104.57,1510.74)">
                <path d="M0.718,-0L0.561,-0L0.499,-0.163L0.212,-0.163L0.153,-0L0,-0L0.279,-0.716L0.432,-0.716L0.718,-0ZM0.452,-0.283L0.354,-0.549L0.257,-0.283L0.452,-0.283Z" style="fill:rgb(133,133,133);fill-rule:nonzero;"/>
            </g>
            <g transform="matrix(303.33,0,0,303.33,2323.63,1510.74)">
                <path d="M0.072,-0.716L0.336,-0.716C0.396,-0.716 0.441,-0.711 0.473,-0.702C0.515,-0.69 0.551,-0.668 0.581,-0.636C0.611,-0.605 0.633,-0.566 0.649,-0.52C0.665,-0.475 0.672,-0.418 0.672,-0.351C0.672,-0.292 0.665,-0.241 0.65,-0.199C0.632,-0.147 0.607,-0.104 0.574,-0.072C0.549,-0.048 0.515,-0.029 0.472,-0.015C0.44,-0.005 0.398,-0 0.344,-0L0.072,-0L0.072,-0.716ZM0.217,-0.595L0.217,-0.121L0.325,-0.121C0.365,-0.121 0.394,-0.123 0.412,-0.127C0.436,-0.133 0.455,-0.143 0.47,-0.157C0.486,-0.171 0.499,-0.194 0.508,-0.226C0.518,-0.258 0.523,-0.302 0.523,-0.357C0.523,-0.413 0.518,-0.455 0.508,-0.485C0.499,-0.514 0.485,-0.538 0.467,-0.554C0.45,-0.571 0.427,-0.582 0.4,-0.588C0.38,-0.592 0.341,-0.595 0.282,-0.595L0.217,-0.595Z" style="fill:rgb(133,133,133);fill-rule:nonzero;"/>
            </g>
        </g>
    </g>
</svg>
